<svg xmlns="http://www.w3.org/2000/svg" version="1.1" xmlns:xlink="http://www.w3.org/1999/xlink" xmlns:svgjs="http://svgjs.dev/svgjs" width="765" height="625" viewBox="0 0 300 300" class="svg-animations " style="background-color: rgb(0, 44, 255);"><svg viewBox="0 0 150.9994659423828 140" width="80" height="80" style="fill: rgb(255, 255, 255);" x="110" y="85.34999990463257"><svg width="151" height="135" viewBox="0 0 151 135" xmlns="http://www.w3.org/2000/svg">
	<g clip-path="url(#clip0)">
	<path d="M122.15 63.5463L119.503 58.9633L90.3233 8.53668C83.7277 -2.84556 67.2592 -2.84556 60.6773 8.53668L31.4975 58.9633L2.3177 109.376C-2.20736 117.188 0.260857 126.34 6.51367 131.32C12.5334 135.014 40.4379 143.359 122.15 63.5463Z"/>
	<path d="M148.682 109.377L124 66.748C110.151 89.5262 87.4021 132.511 111.234 135H133.846C147.037 135 155.264 120.759 148.682 109.377Z"/>
	</g>
	</svg></svg><svg style="fill: rgb(255, 255, 255);" x="42.30500030517578" y="165.34999990463257"><path d="M6.75 26L1.22 26L1.22-1.50L12.22-1.50L12.22 3.86L6.75 3.86L6.75 8.23L11.94 8.23L11.94 13.53L6.75 13.53L6.75 26ZM19.58 26L13.89 26L13.89-1.50L19.58-1.50L19.58 26ZM26.09 26.25L26.09 26.25Q24.14 26.25 23.12 25.34Q22.09 24.44 21.72 22.86Q21.34 21.28 21.34 19.28L21.34 19.28Q21.34 17.14 21.77 15.77Q22.19 14.41 23.21 13.53Q24.23 12.66 26.03 12.05L26.03 12.05L29.50 10.86L29.50 8.45Q29.50 6.56 28.27 6.56L28.27 6.56Q27.14 6.56 27.14 8.09L27.14 8.09L27.14 9.50L21.70 9.50Q21.69 9.38 21.69 9.18Q21.69 8.98 21.69 8.73L21.69 8.73Q21.69 5.23 23.34 3.77Q24.98 2.31 28.56 2.31L28.56 2.31Q30.44 2.31 31.92 2.98Q33.41 3.64 34.27 4.94Q35.14 6.23 35.14 8.14L35.14 8.14L35.14 26L29.58 26L29.58 23.22Q29.17 24.69 28.23 25.47Q27.30 26.25 26.09 26.25ZM28.30 21.91L28.30 21.91Q28.98 21.91 29.23 21.33Q29.48 20.75 29.48 20.08L29.48 20.08L29.48 13.55Q28.33 14.02 27.69 14.73Q27.05 15.44 27.05 16.81L27.05 16.81L27.05 19.83Q27.05 21.91 28.30 21.91ZM46.75 26L40.28 26L36.52 2.56L42.13 2.56L43.47 18.22L44.98 2.56L50.58 2.56L46.75 26ZM58.86 26.25L58.86 26.25Q51.86 26.25 51.86 18.98L51.86 18.98L51.86 9.58Q51.86 6.27 53.72 4.29Q55.58 2.31 58.86 2.31L58.86 2.31Q62.16 2.31 64.02 4.29Q65.88 6.27 65.88 9.58L65.88 9.58L65.88 18.98Q65.88 26.25 58.86 26.25ZM58.86 21.94L58.86 21.94Q59.56 21.94 59.87 21.43Q60.17 20.92 60.17 20.14L60.17 20.14L60.17 8.69Q60.17 6.64 58.86 6.64L58.86 6.64Q57.55 6.64 57.55 8.69L57.55 8.69L57.55 20.14Q57.55 20.92 57.85 21.43Q58.16 21.94 58.86 21.94ZM72.45 26.25L72.45 26.25Q70.58 26.25 69.59 25.47Q68.59 24.69 68.23 23.29Q67.88 21.89 67.88 20.02L67.88 20.02L67.88 2.56L73.50 2.56L73.50 19.36Q73.50 20.77 73.72 21.32Q73.94 21.88 74.75 21.88L74.75 21.88Q75.63 21.88 75.85 21.09Q76.08 20.31 76.08 19.08L76.08 19.08L76.08 2.56L81.66 2.56L81.66 26L76.06 26L76.06 23.50Q75.53 24.84 74.79 25.55Q74.05 26.25 72.45 26.25ZM89.59 26L83.91 26L83.91 2.56L89.59 2.56L89.59 5.17Q90 3.81 91.03 3.05Q92.06 2.28 93.63 2.28L93.63 2.28L93.63 6.95Q92.94 6.95 91.98 7.10Q91.03 7.25 90.31 7.51Q89.59 7.77 89.59 8.08L89.59 8.08L89.59 26ZM101.06 26L95.52 26L95.52 7.86L94.50 7.86L94.50 3.59L95.52 3.59L95.52 2Q95.52-1.78 99.30-1.78L99.30-1.78Q101.08-1.78 102.17-1.33L102.17-1.33L102.17 2.13Q101.78 2.05 101.66 2.05L101.66 2.05Q101.17 2.05 101.06 2.40Q100.95 2.75 100.95 3.30L100.95 3.30L100.95 3.59L102.17 3.59L102.17 7.92L101.06 7.92L101.06 26ZM108.48 26.25L108.48 26.25Q106.61 26.25 105.62 25.47Q104.63 24.69 104.27 23.29Q103.91 21.89 103.91 20.02L103.91 20.02L103.91 2.56L109.53 2.56L109.53 19.36Q109.53 20.77 109.75 21.32Q109.97 21.88 110.78 21.88L110.78 21.88Q111.66 21.88 111.88 21.09Q112.11 20.31 112.11 19.08L112.11 19.08L112.11 2.56L117.69 2.56L117.69 26L112.09 26L112.09 23.50Q111.56 24.84 110.82 25.55Q110.08 26.25 108.48 26.25ZM125.63 26L119.94 26L119.94-1.50L125.63-1.50L125.63 26ZM146.58 26L134.75 26L134.75 21L141.05 3.56L135.36 3.56L135.36-1.50L146.84-1.50L146.84 3.31L140.44 20.94L146.58 20.94L146.58 26ZM155.06 26.25L155.06 26.25Q152.56 26.25 151.08 25.31Q149.59 24.38 148.95 22.61Q148.31 20.84 148.31 18.36L148.31 18.36L148.31 8.94Q148.31 5.67 150.19 3.99Q152.06 2.31 155.34 2.31L155.34 2.31Q162.09 2.31 162.09 8.94L162.09 8.94L162.09 10.64Q162.09 13.73 162.03 14.80L162.03 14.80L153.91 14.80L153.91 19.33Q153.91 19.95 153.98 20.55Q154.06 21.16 154.34 21.55Q154.61 21.94 155.22 21.94L155.22 21.94Q156.09 21.94 156.31 21.18Q156.53 20.42 156.53 19.20L156.53 19.20L156.53 16.95L162.09 16.95L162.09 18.28Q162.09 20.91 161.45 22.68Q160.80 24.45 159.26 25.35Q157.72 26.25 155.06 26.25ZM153.88 8.86L153.88 12.02L156.53 12.02L156.53 8.86Q156.53 7.59 156.22 7.04Q155.91 6.48 155.28 6.48L155.28 6.48Q154.61 6.48 154.24 7.02Q153.88 7.55 153.88 8.86L153.88 8.86ZM169.72 26L164.13 26L164.13 2.56L169.72 2.56L169.72 5.55Q170.03 4.20 170.88 3.26Q171.73 2.31 173.25 2.31L173.25 2.31Q175.69 2.31 176.79 3.81Q177.89 5.31 177.89 7.92L177.89 7.92L177.89 26L172.38 26L172.38 8.50Q172.38 7.81 172.09 7.23Q171.81 6.64 171.13 6.64L171.13 6.64Q170.48 6.64 170.18 7.09Q169.88 7.53 169.80 8.20Q169.72 8.86 169.72 9.52L169.72 9.52L169.72 26ZM185.64 1.13L180.05 1.13L180.05-3.53L185.64-3.53L185.64 1.13ZM185.64 26L180.05 26L180.05 2.56L185.64 2.56L185.64 26ZM192.67 26.25L192.67 26.25Q190.41 26.25 189.62 25.29Q188.83 24.33 188.83 22.34L188.83 22.34L188.83 7.73L187.25 7.73L187.25 3.47L188.83 3.47L188.83-1.50L194.27-1.50L194.27 3.47L195.84 3.47L195.84 7.73L194.27 7.73L194.27 21.03Q194.27 21.61 194.45 21.84Q194.64 22.08 195.17 22.08L195.17 22.08Q195.55 22.08 195.84 22.02L195.84 22.02L195.84 25.83Q195.66 25.89 194.67 26.07Q193.69 26.25 192.67 26.25ZM203.38 26L197.63 26L197.63-1.50L203.38-1.50L203.38 4.89Q203.83 3.58 204.77 2.95Q205.70 2.31 206.95 2.31L206.95 2.31Q209.39 2.31 210.50 3.84Q211.61 5.38 211.61 7.95L211.61 7.95L211.61 26L205.95 26L205.95 8.31Q205.95 7.55 205.63 7.06Q205.31 6.58 204.63 6.58L204.63 6.58Q204.05 6.58 203.71 7.08Q203.38 7.58 203.38 8.27L203.38 8.27L203.38 26Z"/></svg><svg style="fill: rgb(255, 255, 255);" x="67.4000015258789" y="203.13000059127808"><path d="M1.38 13L0.24 1.80L1.94 1.80L2.72 10.41L2.75 10.41L3.58 1.80L5.50 1.80L6.34 10.41L6.37 10.41L7.15 1.80L8.67 1.80L7.54 13L5.34 13L4.54 5.45L4.51 5.45L3.71 13L1.38 13ZM9.57 13L9.57 1.80L11.33 1.80L11.33 6.36L13.22 6.36L13.22 1.80L14.98 1.80L14.98 13L13.22 13L13.22 7.96L11.33 7.96L11.33 13L9.57 13ZM16.29 13L16.29 1.80L21.09 1.80L21.09 3.40L18.05 3.40L18.05 6.36L20.46 6.36L20.46 7.96L18.05 7.96L18.05 11.40L21.09 11.40L21.09 13L16.29 13ZM22.10 13L22.10 1.80L24.70 1.80Q26.06 1.80 26.69 2.43Q27.31 3.06 27.31 4.38L27.31 4.38L27.31 5.06Q27.31 6.81 26.16 7.27L26.16 7.27L26.16 7.30Q26.80 7.50 27.06 8.09Q27.33 8.68 27.33 9.67L27.33 9.67L27.33 11.64Q27.33 12.12 27.36 12.42Q27.39 12.71 27.52 13L27.52 13L25.73 13Q25.63 12.73 25.60 12.49Q25.57 12.25 25.57 11.62L25.57 11.62L25.57 9.58Q25.57 8.81 25.32 8.50Q25.07 8.20 24.46 8.20L24.46 8.20L23.86 8.20L23.86 13L22.10 13ZM23.86 6.60L24.50 6.60Q25.02 6.60 25.29 6.33Q25.55 6.06 25.55 5.42L25.55 5.42L25.55 4.55Q25.55 3.94 25.34 3.67Q25.12 3.40 24.66 3.40L24.66 3.40L23.86 3.40L23.86 6.60ZM28.54 13L28.54 1.80L33.34 1.80L33.34 3.40L30.30 3.40L30.30 6.36L32.72 6.36L32.72 7.96L30.30 7.96L30.30 11.40L33.34 11.40L33.34 13L28.54 13ZM36.91 13L36.91 1.80L41.71 1.80L41.71 3.40L38.67 3.40L38.67 6.36L41.09 6.36L41.09 7.96L38.67 7.96L38.67 11.40L41.71 11.40L41.71 13L36.91 13ZM43.95 13L42.26 1.80L44.03 1.80L45.18 10.49L45.22 10.49L46.37 1.80L47.98 1.80L46.29 13L43.95 13ZM48.83 13L48.83 1.80L53.63 1.80L53.63 3.40L50.59 3.40L50.59 6.36L53.01 6.36L53.01 7.96L50.59 7.96L50.59 11.40L53.63 11.40L53.63 13L48.83 13ZM54.64 13L54.64 1.80L57.25 1.80Q58.61 1.80 59.23 2.43Q59.86 3.06 59.86 4.38L59.86 4.38L59.86 5.06Q59.86 6.81 58.70 7.27L58.70 7.27L58.70 7.30Q59.34 7.50 59.61 8.09Q59.87 8.68 59.87 9.67L59.87 9.67L59.87 11.64Q59.87 12.12 59.90 12.42Q59.94 12.71 60.06 13L60.06 13L58.27 13Q58.18 12.73 58.14 12.49Q58.11 12.25 58.11 11.62L58.11 11.62L58.11 9.58Q58.11 8.81 57.86 8.50Q57.62 8.20 57.01 8.20L57.01 8.20L56.40 8.20L56.40 13L54.64 13ZM56.40 6.60L57.04 6.60Q57.57 6.60 57.83 6.33Q58.10 6.06 58.10 5.42L58.10 5.42L58.10 4.55Q58.10 3.94 57.88 3.67Q57.66 3.40 57.20 3.40L57.20 3.40L56.40 3.40L56.40 6.60ZM62.45 13L62.45 8.23L60.32 1.80L62.19 1.80L63.39 5.91L63.42 5.91L64.62 1.80L66.34 1.80L64.21 8.23L64.21 13L62.45 13ZM69.70 13L69.70 1.80L72.38 1.80Q73.70 1.80 74.35 2.50Q75.01 3.21 75.01 4.57L75.01 4.57L75.01 10.23Q75.01 11.59 74.35 12.30Q73.70 13 72.38 13L72.38 13L69.70 13ZM71.46 11.40L72.35 11.40Q72.78 11.40 73.02 11.14Q73.25 10.89 73.25 10.31L73.25 10.31L73.25 4.49Q73.25 3.91 73.02 3.66Q72.78 3.40 72.35 3.40L72.35 3.40L71.46 3.40L71.46 11.40ZM76.19 13L76.19 1.80L77.95 1.80L77.95 13L76.19 13ZM81.55 13.16Q80.27 13.16 79.62 12.43Q78.96 11.70 78.96 10.34L78.96 10.34L78.96 9.70L80.62 9.70L80.62 10.47Q80.62 11.56 81.54 11.56L81.54 11.56Q81.98 11.56 82.22 11.30Q82.45 11.03 82.45 10.44L82.45 10.44Q82.45 9.74 82.13 9.20Q81.81 8.66 80.94 7.91L80.94 7.91Q79.86 6.95 79.42 6.18Q78.99 5.40 78.99 4.42L78.99 4.42Q78.99 3.10 79.66 2.37Q80.34 1.64 81.62 1.64L81.62 1.64Q82.88 1.64 83.53 2.37Q84.18 3.10 84.18 4.46L84.18 4.46L84.18 4.92L82.51 4.92L82.51 4.34Q82.51 3.77 82.29 3.50Q82.06 3.24 81.63 3.24L81.63 3.24Q80.75 3.24 80.75 4.31L80.75 4.31Q80.75 4.92 81.08 5.45Q81.41 5.98 82.27 6.73L82.27 6.73Q83.38 7.69 83.79 8.47Q84.21 9.26 84.21 10.31L84.21 10.31Q84.21 11.69 83.53 12.42Q82.85 13.16 81.55 13.16L81.55 13.16ZM85.22 13L85.22 1.80L86.98 1.80L86.98 6.36L88.86 6.36L88.86 1.80L90.62 1.80L90.62 13L88.86 13L88.86 7.96L86.98 7.96L86.98 13L85.22 13ZM95.87 13L95.87 3.40L94.03 3.40L94.03 1.80L99.47 1.80L99.47 3.40L97.63 3.40L97.63 13L95.87 13ZM100.32 13L100.32 1.80L105.12 1.80L105.12 3.40L102.08 3.40L102.08 6.36L104.50 6.36L104.50 7.96L102.08 7.96L102.08 11.40L105.12 11.40L105.12 13L100.32 13ZM106.13 13L106.13 1.80L107.89 1.80L107.89 11.40L110.78 11.40L110.78 13L106.13 13ZM111.63 13L111.63 1.80L113.39 1.80L113.39 11.40L116.29 11.40L116.29 13L111.63 13ZM119.42 13.16Q118.14 13.16 117.49 12.43Q116.83 11.70 116.83 10.34L116.83 10.34L116.83 9.70L118.50 9.70L118.50 10.47Q118.50 11.56 119.41 11.56L119.41 11.56Q119.86 11.56 120.09 11.30Q120.32 11.03 120.32 10.44L120.32 10.44Q120.32 9.74 120.00 9.20Q119.68 8.66 118.82 7.91L118.82 7.91Q117.73 6.95 117.30 6.18Q116.86 5.40 116.86 4.42L116.86 4.42Q116.86 3.10 117.54 2.37Q118.21 1.64 119.49 1.64L119.49 1.64Q120.75 1.64 121.40 2.37Q122.05 3.10 122.05 4.46L122.05 4.46L122.05 4.92L120.38 4.92L120.38 4.34Q120.38 3.77 120.16 3.50Q119.94 3.24 119.50 3.24L119.50 3.24Q118.62 3.24 118.62 4.31L118.62 4.31Q118.62 4.92 118.95 5.45Q119.28 5.98 120.14 6.73L120.14 6.73Q121.25 7.69 121.66 8.47Q122.08 9.26 122.08 10.31L122.08 10.31Q122.08 11.69 121.40 12.42Q120.72 13.16 119.42 13.16L119.42 13.16ZM125.18 13L127.01 1.80L129.39 1.80L131.22 13L129.46 13L129.14 10.78L129.14 10.81L127.14 10.81L126.82 13L125.18 13ZM127.34 9.29L128.93 9.29L128.14 3.75L128.11 3.75L127.34 9.29ZM136.91 13.16Q135.63 13.16 134.98 12.43Q134.32 11.70 134.32 10.34L134.32 10.34L134.32 9.70L135.98 9.70L135.98 10.47Q135.98 11.56 136.90 11.56L136.90 11.56Q137.34 11.56 137.58 11.30Q137.81 11.03 137.81 10.44L137.81 10.44Q137.81 9.74 137.49 9.20Q137.17 8.66 136.30 7.91L136.30 7.91Q135.22 6.95 134.78 6.18Q134.35 5.40 134.35 4.42L134.35 4.42Q134.35 3.10 135.02 2.37Q135.70 1.64 136.98 1.64L136.98 1.64Q138.24 1.64 138.89 2.37Q139.54 3.10 139.54 4.46L139.54 4.46L139.54 4.92L137.87 4.92L137.87 4.34Q137.87 3.77 137.65 3.50Q137.42 3.24 136.99 3.24L136.99 3.24Q136.11 3.24 136.11 4.31L136.11 4.31Q136.11 4.92 136.44 5.45Q136.77 5.98 137.63 6.73L137.63 6.73Q138.74 7.69 139.15 8.47Q139.57 9.26 139.57 10.31L139.57 10.31Q139.57 11.69 138.89 12.42Q138.21 13.16 136.91 13.16L136.91 13.16ZM141.95 13L141.95 3.40L140.11 3.40L140.11 1.80L145.55 1.80L145.55 3.40L143.71 3.40L143.71 13L141.95 13ZM148.88 13.16Q147.58 13.16 146.90 12.42Q146.21 11.69 146.21 10.34L146.21 10.34L146.21 4.46Q146.21 3.11 146.90 2.38Q147.58 1.64 148.88 1.64L148.88 1.64Q150.18 1.64 150.86 2.38Q151.55 3.11 151.55 4.46L151.55 4.46L151.55 10.34Q151.55 11.69 150.86 12.42Q150.18 13.16 148.88 13.16L148.88 13.16ZM148.88 11.56Q149.79 11.56 149.79 10.46L149.79 10.46L149.79 4.34Q149.79 3.24 148.88 3.24L148.88 3.24Q147.97 3.24 147.97 4.34L147.97 4.34L147.97 10.46Q147.97 11.56 148.88 11.56L148.88 11.56ZM152.74 13L152.74 1.80L155.34 1.80Q156.70 1.80 157.33 2.43Q157.95 3.06 157.95 4.38L157.95 4.38L157.95 5.06Q157.95 6.81 156.80 7.27L156.80 7.27L156.80 7.30Q157.44 7.50 157.70 8.09Q157.97 8.68 157.97 9.67L157.97 9.67L157.97 11.64Q157.97 12.12 158.00 12.42Q158.03 12.71 158.16 13L158.16 13L156.37 13Q156.27 12.73 156.24 12.49Q156.21 12.25 156.21 11.62L156.21 11.62L156.21 9.58Q156.21 8.81 155.96 8.50Q155.71 8.20 155.10 8.20L155.10 8.20L154.50 8.20L154.50 13L152.74 13ZM154.50 6.60L155.14 6.60Q155.66 6.60 155.93 6.33Q156.19 6.06 156.19 5.42L156.19 5.42L156.19 4.55Q156.19 3.94 155.98 3.67Q155.76 3.40 155.30 3.40L155.30 3.40L154.50 3.40L154.50 6.60ZM160.54 13L160.54 8.23L158.42 1.80L160.29 1.80L161.49 5.91L161.52 5.91L162.72 1.80L164.43 1.80L162.30 8.23L162.30 13L160.54 13ZM163.74 13L163.74 11.30L165.44 11.30L165.44 13L163.74 13Z"/></svg></svg>